<?xml version="1.0" encoding="UTF-8" standalone="no"?><!DOCTYPE svg PUBLIC "-//W3C//DTD SVG 1.1//EN" "http://www.w3.org/Graphics/SVG/1.1/DTD/svg11.dtd"><svg width="100%" height="100%" viewBox="0 0 3508 2481" version="1.1" xmlns="http://www.w3.org/2000/svg" xmlns:xlink="http://www.w3.org/1999/xlink" xml:space="preserve" xmlns:serif="http://www.serif.com/" style="fill-rule:evenodd;clip-rule:evenodd;stroke-linejoin:round;stroke-miterlimit:2;"><g id="_9a8c59c7-2328-4160-ac3f-3370f15d0fa1.png" serif:id="9a8c59c7-2328-4160-ac3f-3370f15d0fa1.png"><path d="M1257.19,1718.43c-38.11,-12.47 -88.83,-27.86 -94.55,-37.01c-5.66,-9.04 -2.18,-412.34 -1.87,-448.2c1.57,-182.02 211.16,-236.85 212.19,-237.71c13.78,-11.51 1.83,-196.91 5.07,-216.02c1.39,-8.21 4.03,-8.36 126.89,-33.13c24.24,-4.89 17.06,8.86 20.44,33.13c21.72,155.7 15.74,156.34 23.1,197.26c1.35,7.52 24.54,7.9 66.92,7.45c15.56,-0.16 14.31,-10.51 14.4,-13.12c4.11,-116.87 -6.27,-129.51 15.94,-130.02c237.43,-5.5 263.94,-28.06 352.78,-42.91c13.67,-2.29 6.82,8.21 9.91,172.99c0.32,17.32 32.12,12.91 60.68,13.15c25.3,0.21 18.74,-12.48 29.29,-103.99c10.96,-95.14 12.19,-134.72 20.62,-137.26c9.27,-2.79 127.2,23.57 132.2,25.02c11.27,3.28 5.01,41.84 6.13,213.12c0,0.55 -1.05,11.58 8.31,15.23c209.87,81.85 210.55,160.16 210.02,332.58c-1.06,348.17 -0.11,348.12 -2.01,353.41c-7.03,19.58 -583.73,209.52 -1216.48,36.04Z" style="fill:#f97316;"/><path d="M1388.42,2408.52c-6.41,-2 -70.12,-17.93 -94.65,-42.08c-29.1,-28.66 -19.1,-68.3 -20.55,-105c-0.75,-18.89 -99.75,-35.83 -112.18,-135.95c-0.68,-5.47 -0.57,-339.29 0.61,-342.92c7.5,-22.92 153.38,92.1 655.43,91.88c463.26,-0.2 615.92,-95.33 650.25,-96.46c9.45,-0.31 7.93,5.76 8.08,170.99c0.17,186.87 13.22,235.52 -95.02,295.13c-39.77,21.9 -3.73,58.72 -24.76,102.68c-50.78,106.15 -649.83,143.46 -967.24,61.72Zm246.97,-106.92c-28.59,43.37 10.28,67.19 25.23,67.74c5.81,0.21 306.73,2.4 318.06,-1.12c41.33,-12.81 35.33,-78.39 -10.43,-79.46c-25.08,-0.58 -305.94,-0.06 -307.27,0.01c-15.12,0.86 -13.89,3.66 -25.6,12.82Z" style="fill:#f97316;"/><path d="M1887.56,255.21c17.06,-11.5 17.12,-11.3 18.59,-12.32c16.14,-11.18 123.27,-85.4 135.41,-204.75c2.46,-24.24 17.86,-1.84 30.32,12.52c189.1,217.95 139.92,597.18 -199.16,674.47c-17,3.88 -39.68,-53.4 -16.69,-122.45c16.64,-50 122.79,-170.02 66.65,-121.24c-43.78,38.04 -93.04,42.24 -129.73,82.41c-78.54,86 -15.87,165.49 -31.69,174.72c-1.16,0.68 -136.03,17.59 -140.92,16.78c-7.12,-1.17 -16.84,-29.16 -17.8,-31.92c-98.21,-282.83 169.82,-394.69 285.02,-468.21Z" style="fill:#f97316;"/></g></svg>