<?xml version="1.0" encoding="UTF-8" standalone="no"?><!DOCTYPE svg PUBLIC "-//W3C//DTD SVG 1.1//EN" "http://www.w3.org/Graphics/SVG/1.1/DTD/svg11.dtd"><svg width="100%" height="100%" viewBox="0 0 10800 7200" version="1.1" xmlns="http://www.w3.org/2000/svg" xmlns:xlink="http://www.w3.org/1999/xlink" xml:space="preserve" xmlns:serif="http://www.serif.com/" style="fill-rule:evenodd;clip-rule:evenodd;stroke-linejoin:round;stroke-miterlimit:2;"><g><path d="M4545.66,4212.99c33.28,-38.83 51.77,-92.45 48.07,-144.22l0,-340.21c0,-107.24 -86.9,-195.99 -194.14,-195.99l-327.26,0c-107.24,0 -194.14,88.75 -194.14,195.99c0,107.24 86.9,194.14 194.14,194.14l131.27,0l0,81.35c-38.83,33.28 -73.96,42.53 -138.67,42.53c-175.65,0 -318.02,-142.37 -318.02,-318.02c0,-177.5 142.37,-319.87 318.02,-319.87c53.62,0 94.3,5.55 179.35,73.96c36.98,29.58 81.35,44.37 123.88,44.37c57.32,0 112.79,-24.04 151.61,-72.11c31.43,-40.68 46.22,-92.45 40.68,-144.22c-3.7,-51.77 -29.58,-97.99 -70.26,-131.27c-138.67,-112.79 -266.25,-160.86 -425.26,-160.86c-391.98,0 -708.14,318.02 -708.14,709.99c0,391.98 316.17,708.14 708.14,708.14c207.08,0 345.75,-70.26 480.72,-223.72Z" style="fill:#f97316;fill-rule:nonzero;"/><path d="M5224.23,2883.6l25.89,0c38.83,0 73.96,-20.34 92.45,-55.47l81.35,-147.92c16.64,-33.28 16.64,-72.11 -3.7,-105.39c-18.49,-33.28 -53.62,-51.77 -90.6,-51.77l-72.11,0c-51.77,0 -94.3,33.28 -105.39,83.2l-33.28,147.92c-5.55,31.43 1.85,64.71 22.19,90.6c20.34,25.89 49.92,38.83 83.2,38.83Zm652.68,1270.22l-425.26,-1028.01c-31.43,-73.96 -101.69,-120.18 -181.2,-120.18c-79.5,0 -149.76,48.07 -179.35,122.03l-414.16,1028.01c-20.34,48.07 -20.34,101.69 0,149.76c31.43,70.26 101.69,118.33 179.35,118.33c81.35,0 151.61,-48.07 181.2,-122.03l40.68,-99.84l395.67,0l42.53,101.69c31.43,73.96 103.54,120.18 181.2,120.18c24.04,0 49.92,-5.55 73.96,-14.79c97.99,-40.68 146.07,-155.31 105.39,-255.15Zm-783.48,-252.81l167.66,-346.01l185.45,352.55l-353.11,-6.54Z" style="fill:#f97316;fill-rule:nonzero;"/><path d="M6331.74,3488.2c0,-75.81 125.73,-79.5 149.76,-79.5c146.07,0 199.69,122.03 351.3,122.03l3.7,-1.85c66.56,-14.79 116.48,-62.86 136.82,-127.58c22.19,-62.86 7.4,-131.27 -36.98,-183.05c-79.5,-90.6 -221.87,-199.69 -454.84,-199.69c-318.02,0 -539.89,194.14 -539.89,469.63c0,491.82 798.74,273.64 798.74,495.52c0,73.96 -138.67,62.86 -212.63,62.86c-297.68,0 -207.08,-175.65 -386.43,-175.65c-120.18,0 -179.35,129.43 -157.16,225.57c5.55,25.89 83.2,340.21 543.59,340.21c526.95,0 602.76,-338.36 602.76,-434.5c0,-580.57 -798.74,-255.15 -798.74,-514.01Z" style="fill:#f97316;fill-rule:nonzero;"/><path d="M8456.18,4298.04c131.27,-142.37 133.12,-334.66 129.43,-393.82l0,-684.11c0,-107.24 -85.05,-195.99 -188.59,-199.69c-53.62,-1.85 -103.54,18.49 -140.52,55.47c-38.83,36.98 -59.17,86.9 -59.17,138.67l0,695.2l-1.85,7.4l1.85,9.24c1.85,27.73 -5.55,85.05 -27.73,107.24c-11.09,12.94 -36.98,14.79 -57.32,14.79c-12.94,0 -40.68,0 -59.17,-59.17c-25.89,-86.9 -105.39,-146.07 -194.14,-146.07c-59.17,1.85 -114.63,27.73 -151.61,73.96c-36.98,46.22 -51.77,105.39 -40.68,164.56c46.22,232.97 203.38,356.85 445.6,356.85c177.5,0 284.74,-75.81 343.9,-140.52Z" style="fill:#f97316;fill-rule:nonzero;"/><path d="M9232.73,2898.39l25.89,0c38.83,0 73.96,-20.34 92.45,-55.47l81.35,-147.92c16.64,-33.28 16.64,-72.11 -3.7,-105.39c-18.49,-33.28 -53.62,-51.77 -90.6,-51.77l-72.11,0c-51.77,0 -94.3,33.28 -105.39,83.2l-33.28,147.92c-5.55,31.43 1.85,64.71 22.19,90.6c20.34,25.89 49.92,38.83 83.2,38.83Zm652.68,1270.22l-425.26,-1028.01c-31.43,-73.96 -101.69,-120.18 -181.2,-120.18c-79.5,0 -149.76,48.07 -179.35,122.03l-414.16,1028.01c-20.34,48.07 -20.34,101.69 0,149.76c31.43,70.26 101.69,118.33 179.35,118.33c81.35,0 151.61,-48.07 181.2,-122.03l40.68,-99.84l395.67,0l42.53,101.69c31.43,73.96 103.54,120.18 181.2,120.18c24.04,0 49.92,-5.55 73.96,-14.79c97.99,-40.68 146.07,-155.31 105.39,-255.15Zm-783.48,-252.81l167.66,-346.01l185.45,352.55l-353.11,-6.54Z" style="fill:#f97316;fill-rule:nonzero;"/><path d="M10192.33,2952.01c-107.24,0 -194.14,88.75 -194.14,195.99l0,1022.46c0,107.24 86.9,195.99 194.14,195.99c107.24,0 195.99,-88.75 195.99,-195.99l0,-1022.46c0,-107.24 -88.75,-195.99 -195.99,-195.99Zm0,1813.81c103.54,0 186.74,-83.2 186.74,-186.74c0,-103.54 -83.2,-186.74 -186.74,-186.74c-101.69,0 -186.74,83.2 -186.74,186.74c0,103.54 85.05,186.74 186.74,186.74Z" style="fill:#f97316;fill-rule:nonzero;"/></g><g id="_9a8c59c7-2328-4160-ac3f-3370f15d0fa1.png" serif:id="9a8c59c7-2328-4160-ac3f-3370f15d0fa1.png"><path d="M912.56,3814.42c-63.41,-20.76 -147.81,-46.36 -157.33,-61.58c-9.42,-15.05 -3.63,-686.13 -3.11,-745.8c2.61,-302.88 351.37,-394.11 353.08,-395.54c22.94,-19.15 3.05,-327.65 8.44,-359.46c2.32,-13.65 6.7,-13.91 211.15,-55.13c40.34,-8.13 28.39,14.74 34.02,55.12c36.14,259.08 26.19,260.15 38.44,328.23c2.25,12.51 40.84,13.14 111.36,12.4c25.9,-0.27 23.81,-17.49 23.97,-21.84c6.83,-194.48 -10.43,-215.5 26.53,-216.36c395.07,-9.15 439.19,-46.69 587.03,-71.4c22.75,-3.8 11.35,13.65 16.49,287.86c0.54,28.81 53.44,21.49 100.97,21.88c42.1,0.35 31.19,-20.77 48.73,-173.04c18.24,-158.31 20.28,-224.16 34.31,-228.4c15.42,-4.65 211.66,39.21 219.98,41.64c18.76,5.46 8.34,69.62 10.2,354.63c0.01,0.91 -1.75,19.27 13.83,25.34c349.22,136.2 350.35,266.51 349.48,553.4c-1.76,579.35 -0.18,579.27 -3.34,588.07c-11.7,32.58 -971.32,348.64 -2024.21,59.96Z" style="fill:#1e2c4d;"/><path d="M1130.92,4962.72c-10.67,-3.33 -116.68,-29.83 -157.49,-70.02c-48.43,-47.7 -31.78,-113.66 -34.2,-174.71c-1.24,-31.44 -165.98,-59.62 -186.66,-226.22c-1.13,-9.11 -0.96,-564.57 1.02,-570.61c12.47,-38.15 255.22,153.25 1090.64,152.89c770.86,-0.33 1024.88,-158.63 1082.02,-160.51c15.73,-0.52 13.2,9.58 13.45,284.52c0.28,310.95 22,391.91 -158.11,491.1c-66.17,36.44 -6.2,97.72 -41.2,170.86c-84.5,176.63 -1081.32,238.71 -1609.47,102.7Zm410.95,-177.91c-47.57,72.17 17.1,111.8 41.99,112.72c9.66,0.36 510.39,3.99 529.25,-1.86c68.77,-21.31 58.79,-130.44 -17.35,-132.21c-41.74,-0.97 -509.07,-0.1 -511.29,0.02c-25.15,1.44 -23.11,6.09 -42.6,21.33Z" style="fill:#1e2c4d;"/><path d="M1961.49,1379.63c28.39,-19.13 28.49,-18.8 30.93,-20.5c26.86,-18.61 205.13,-142.11 225.32,-340.7c4.1,-40.34 29.72,-3.06 50.45,20.84c314.66,362.66 232.83,993.71 -331.4,1122.31c-28.29,6.45 -66.03,-88.85 -27.78,-203.76c27.69,-83.2 204.32,-282.91 110.91,-201.75c-72.85,63.3 -154.83,70.28 -215.87,137.12c-130.69,143.11 -26.41,275.37 -52.74,290.73c-1.93,1.13 -226.34,29.27 -234.48,27.93c-11.85,-1.96 -28.02,-48.52 -29.62,-53.12c-163.42,-470.63 282.59,-656.77 474.27,-779.1Z" style="fill:#f37220;"/></g></svg>