<?xml version="1.0" encoding="UTF-8" standalone="no"?><!DOCTYPE svg PUBLIC "-//W3C//DTD SVG 1.1//EN" "http://www.w3.org/Graphics/SVG/1.1/DTD/svg11.dtd"><svg width="100%" height="100%" viewBox="0 0 3508 2481" version="1.1" xmlns="http://www.w3.org/2000/svg" xmlns:xlink="http://www.w3.org/1999/xlink" xml:space="preserve" xmlns:serif="http://www.serif.com/" style="fill-rule:evenodd;clip-rule:evenodd;stroke-linejoin:round;stroke-miterlimit:2;"><g><path d="M1519.05,1573.52c10.71,-12.49 16.66,-29.75 15.47,-46.41l0,-109.48c0,-34.51 -27.96,-63.07 -62.47,-63.07l-105.31,0c-34.51,0 -62.47,28.56 -62.47,63.07c0,34.51 27.96,62.47 62.47,62.47l42.24,0l0,26.18c-12.49,10.71 -23.8,13.68 -44.62,13.68c-56.52,0 -102.34,-45.81 -102.34,-102.34c0,-57.12 45.81,-102.93 102.34,-102.93c17.25,0 30.34,1.78 57.71,23.8c11.9,9.52 26.18,14.28 39.86,14.28c18.44,0 36.29,-7.73 48.79,-23.2c10.11,-13.09 14.87,-29.75 13.09,-46.41c-1.19,-16.66 -9.52,-31.53 -22.61,-42.24c-44.62,-36.29 -85.68,-51.76 -136.84,-51.76c-126.13,0 -227.88,102.34 -227.88,228.47c0,126.13 101.74,227.88 227.88,227.88c66.64,0 111.26,-22.61 154.69,-71.99Z" style="fill:#f97316;fill-rule:nonzero;"/><path d="M1737.41,1145.74l8.33,0c12.49,0 23.8,-6.54 29.75,-17.85l26.18,-47.6c5.35,-10.71 5.35,-23.2 -1.19,-33.91c-5.95,-10.71 -17.25,-16.66 -29.15,-16.66l-23.2,0c-16.66,0 -30.34,10.71 -33.91,26.77l-10.71,47.6c-1.78,10.11 0.59,20.82 7.14,29.15c6.54,8.33 16.06,12.49 26.77,12.49Zm210.03,408.75l-136.84,-330.81c-10.11,-23.8 -32.72,-38.67 -58.31,-38.67c-25.58,0 -48.19,15.47 -57.71,39.27l-133.27,330.81c-6.54,15.47 -6.54,32.72 0,48.19c10.11,22.61 32.72,38.08 57.71,38.08c26.18,0 48.79,-15.47 58.31,-39.27l13.09,-32.13l127.32,0l13.68,32.72c10.11,23.8 33.32,38.67 58.31,38.67c7.73,0 16.06,-1.78 23.8,-4.76c31.53,-13.09 47,-49.98 33.91,-82.11Zm-252.12,-81.35l53.95,-111.34l59.68,113.45l-113.63,-2.1Z" style="fill:#f97316;fill-rule:nonzero;"/><path d="M2093.8,1340.29c0,-24.39 40.46,-25.58 48.19,-25.58c47,0 64.26,39.27 113.05,39.27l1.19,-0.59c21.42,-4.76 37.48,-20.23 44.03,-41.05c7.14,-20.23 2.38,-42.24 -11.9,-58.9c-25.58,-29.15 -71.4,-64.26 -146.36,-64.26c-102.34,0 -173.73,62.47 -173.73,151.12c0,158.26 257.03,88.06 257.03,159.45c0,23.8 -44.62,20.23 -68.42,20.23c-95.79,0 -66.64,-56.52 -124.35,-56.52c-38.67,0 -57.71,41.65 -50.57,72.59c1.78,8.33 26.77,109.48 174.92,109.48c169.57,0 193.96,-108.88 193.96,-139.82c0,-186.82 -257.03,-82.11 -257.03,-165.4Z" style="fill:#f97316;fill-rule:nonzero;"/><path d="M2777.42,1600.89c42.24,-45.81 42.84,-107.69 41.65,-126.73l0,-220.14c0,-34.51 -27.37,-63.07 -60.69,-64.26c-17.25,-0.59 -33.32,5.95 -45.22,17.85c-12.49,11.9 -19.04,27.96 -19.04,44.62l0,223.71l-0.59,2.38l0.59,2.97c0.59,8.92 -1.78,27.37 -8.92,34.51c-3.57,4.16 -11.9,4.76 -18.44,4.76c-4.16,0 -13.09,0 -19.04,-19.04c-8.33,-27.96 -33.91,-47 -62.47,-47c-19.04,0.59 -36.89,8.92 -48.79,23.8c-11.9,14.87 -16.66,33.91 -13.09,52.95c14.87,74.97 65.45,114.83 143.39,114.83c57.12,0 91.63,-24.39 110.67,-45.22Z" style="fill:#f97316;fill-rule:nonzero;"/><path d="M3027.31,1150.5l8.33,0c12.49,0 23.8,-6.54 29.75,-17.85l26.18,-47.6c5.35,-10.71 5.35,-23.2 -1.19,-33.91c-5.95,-10.71 -17.25,-16.66 -29.15,-16.66l-23.2,0c-16.66,0 -30.34,10.71 -33.91,26.77l-10.71,47.6c-1.78,10.11 0.59,20.82 7.14,29.15c6.54,8.33 16.06,12.49 26.77,12.49Zm210.03,408.75l-136.84,-330.81c-10.11,-23.8 -32.72,-38.67 -58.31,-38.67c-25.58,0 -48.19,15.47 -57.71,39.27l-133.27,330.81c-6.54,15.47 -6.54,32.72 0,48.19c10.11,22.61 32.72,38.08 57.71,38.08c26.18,0 48.79,-15.47 58.31,-39.27l13.09,-32.13l127.32,0l13.68,32.72c10.11,23.8 33.32,38.67 58.31,38.67c7.73,0 16.06,-1.78 23.8,-4.76c31.53,-13.09 47,-49.98 33.91,-82.11Zm-252.12,-81.35l53.95,-111.34l59.68,113.45l-113.63,-2.1Z" style="fill:#f97316;fill-rule:nonzero;"/><path d="M3336.1,1167.75c-34.51,0 -62.47,28.56 -62.47,63.07l0,329.02c0,34.51 27.96,63.07 62.47,63.07c34.51,0 63.07,-28.56 63.07,-63.07l0,-329.02c0,-34.51 -28.56,-63.07 -63.07,-63.07Zm0,583.67c33.32,0 60.09,-26.77 60.09,-60.09c0,-33.32 -26.77,-60.09 -60.09,-60.09c-32.72,0 -60.09,26.77 -60.09,60.09c0,33.32 27.37,60.09 60.09,60.09Z" style="fill:#f97316;fill-rule:nonzero;"/></g><g id="_9a8c59c7-2328-4160-ac3f-3370f15d0fa1.png" serif:id="9a8c59c7-2328-4160-ac3f-3370f15d0fa1.png"><path d="M171.25,1497.42c-24.38,-7.98 -56.83,-17.83 -60.49,-23.68c-3.62,-5.79 -1.39,-263.81 -1.2,-286.75c1.01,-116.45 135.09,-151.53 135.75,-152.08c8.82,-7.36 1.17,-125.98 3.25,-138.2c0.89,-5.25 2.58,-5.35 81.18,-21.2c15.51,-3.13 10.91,5.67 13.08,21.19c13.89,99.61 10.07,100.02 14.78,126.2c0.87,4.81 15.7,5.05 42.82,4.77c9.96,-0.11 9.16,-6.73 9.21,-8.4c2.63,-74.77 -4.01,-82.86 10.2,-83.19c151.9,-3.52 168.86,-17.95 225.7,-27.45c8.75,-1.46 4.37,5.25 6.34,110.68c0.21,11.08 20.55,8.26 38.82,8.41c16.19,0.13 11.99,-7.99 18.74,-66.53c7.01,-60.87 7.8,-86.19 13.19,-87.81c5.93,-1.79 81.38,15.08 84.58,16.01c7.21,2.1 3.21,26.77 3.92,136.35c0,0.35 -0.67,7.41 5.32,9.74c134.27,52.37 134.7,102.47 134.37,212.77c-0.68,222.75 -0.07,222.72 -1.29,226.1c-4.5,12.53 -373.46,134.05 -778.28,23.05Z" style="fill:#f97316;"/><path d="M255.21,1938.92c-4.1,-1.28 -44.86,-11.47 -60.55,-26.92c-18.62,-18.34 -12.22,-43.7 -13.15,-67.17c-0.48,-12.09 -63.82,-22.92 -71.77,-86.98c-0.43,-3.5 -0.37,-217.07 0.39,-219.39c4.8,-14.67 98.13,58.92 419.33,58.78c296.38,-0.13 394.05,-60.99 416.02,-61.71c6.05,-0.2 5.08,3.68 5.17,109.39c0.11,119.55 8.46,150.68 -60.79,188.82c-25.44,14.01 -2.38,37.57 -15.84,65.69c-32.49,67.91 -415.75,91.78 -618.82,39.49Zm158,-68.4c-18.29,27.75 6.57,42.98 16.14,43.34c3.71,0.14 196.24,1.53 203.49,-0.71c26.44,-8.19 22.6,-50.15 -6.67,-50.83c-16.05,-0.37 -195.73,-0.04 -196.58,0.01c-9.67,0.55 -8.88,2.34 -16.38,8.2Z" style="fill:#f97316;"/><path d="M574.54,561.28c10.91,-7.36 10.96,-7.23 11.89,-7.88c10.33,-7.15 78.87,-54.64 86.63,-130.99c1.58,-15.51 11.43,-1.18 19.4,8.01c120.98,139.44 89.52,382.06 -127.42,431.51c-10.88,2.48 -25.39,-34.16 -10.68,-78.34c10.65,-31.99 78.56,-108.77 42.64,-77.57c-28.01,24.34 -59.53,27.02 -83,52.72c-50.25,55.02 -10.15,105.87 -20.28,111.78c-0.74,0.43 -87.03,11.25 -90.16,10.74c-4.56,-0.75 -10.77,-18.66 -11.39,-20.42c-62.83,-180.95 108.65,-252.52 182.35,-299.55Z" style="fill:#f97316;"/></g></svg>