<?xml version="1.0" encoding="UTF-8" standalone="no"?>
<!DOCTYPE svg PUBLIC "-//W3C//DTD SVG 1.1//EN" "http://www.w3.org/Graphics/SVG/1.1/DTD/svg11.dtd">
<svg width="100%" height="100%" viewBox="0 0 3508 2481" version="1.1" xmlns="http://www.w3.org/2000/svg" xmlns:xlink="http://www.w3.org/1999/xlink" xml:space="preserve" xmlns:serif="http://www.serif.com/" style="fill-rule:evenodd;clip-rule:evenodd;stroke-linejoin:round;stroke-miterlimit:2;">
    <g id="_9a8c59c7-2328-4160-ac3f-3370f15d0fa1.png" serif:id="9a8c59c7-2328-4160-ac3f-3370f15d0fa1.png">
        <g transform="matrix(1.56138,0,0,1.56138,866.579761,-619.768667)">
            <path d="M171.25,1497.42C146.87,1489.44 114.42,1479.59 110.76,1473.74C107.14,1467.95 109.37,1209.93 109.56,1186.99C110.57,1070.54 244.65,1035.46 245.31,1034.91C254.13,1027.55 246.48,908.93 248.56,896.71C249.45,891.46 251.14,891.36 329.74,875.51C345.25,872.38 340.65,881.18 342.82,896.7C356.71,996.31 352.89,996.72 357.6,1022.9C358.47,1027.71 373.3,1027.95 400.42,1027.67C410.38,1027.56 409.58,1020.94 409.63,1019.27C412.26,944.5 405.62,936.41 419.83,936.08C571.73,932.56 588.69,918.13 645.53,908.63C654.28,907.17 649.9,913.88 651.87,1019.31C652.08,1030.39 672.42,1027.57 690.69,1027.72C706.88,1027.85 702.68,1019.73 709.43,961.19C716.44,900.32 717.23,875 722.62,873.38C728.55,871.59 804,888.46 807.2,889.39C814.41,891.49 810.41,916.16 811.12,1025.74C811.12,1026.09 810.45,1033.15 816.44,1035.48C950.71,1087.85 951.14,1137.95 950.81,1248.25C950.13,1471 950.74,1470.97 949.52,1474.35C945.02,1486.88 576.06,1608.4 171.24,1497.4L171.25,1497.42Z" style="fill:rgb(29,44,78);"/>
        </g>
        <g transform="matrix(1.56138,0,0,1.56138,866.579761,-619.768667)">
            <path d="M255.21,1938.92C251.11,1937.64 210.35,1927.45 194.66,1912C176.04,1893.66 182.44,1868.3 181.51,1844.83C181.03,1832.74 117.69,1821.91 109.74,1757.85C109.31,1754.35 109.37,1540.78 110.13,1538.46C114.93,1523.79 208.26,1597.38 529.46,1597.24C825.84,1597.11 923.51,1536.25 945.48,1535.53C951.53,1535.33 950.56,1539.21 950.65,1644.92C950.76,1764.47 959.11,1795.6 889.86,1833.74C864.42,1847.75 887.48,1871.31 874.02,1899.43C841.53,1967.34 458.27,1991.21 255.2,1938.92L255.21,1938.92ZM413.21,1870.52C394.92,1898.27 419.78,1913.5 429.35,1913.86C433.06,1914 625.59,1915.39 632.84,1913.15C659.28,1904.96 655.44,1863 626.17,1862.32C610.12,1861.95 430.44,1862.28 429.59,1862.33C419.92,1862.88 420.71,1864.67 413.21,1870.53L413.21,1870.52Z" style="fill:rgb(29,44,78);"/>
        </g>
        <g transform="matrix(1.56138,0,0,1.56138,866.579761,-619.768667)">
            <path d="M574.54,561.28C585.45,553.92 585.5,554.05 586.43,553.4C596.76,546.25 665.3,498.76 673.06,422.41C674.64,406.9 684.49,421.23 692.46,430.42C813.44,569.86 781.98,812.48 565.04,861.93C554.16,864.41 539.65,827.77 554.36,783.59C565.01,751.6 632.92,674.82 597,706.02C568.99,730.36 537.47,733.04 514,758.74C463.75,813.76 503.85,864.61 493.72,870.52C492.98,870.95 406.69,881.77 403.56,881.26C399,880.51 392.79,862.6 392.17,860.84C329.34,679.89 500.82,608.32 574.52,561.29L574.54,561.28Z" style="fill:rgb(249,115,22);"/>
        </g>
    </g>
</svg>
